<?xml version="1.0" encoding="UTF-8" standalone="no"?>
<!-- Created with Inkscape (http://www.inkscape.org/) -->

<svg
   xmlns:dc="http://purl.org/dc/elements/1.1/"
   xmlns:cc="http://creativecommons.org/ns#"
   xmlns:rdf="http://www.w3.org/1999/02/22-rdf-syntax-ns#"
   xmlns:svg="http://www.w3.org/2000/svg"
   xmlns="http://www.w3.org/2000/svg"
   xmlns:sodipodi="http://sodipodi.sourceforge.net/DTD/sodipodi-0.dtd"
   xmlns:inkscape="http://www.inkscape.org/namespaces/inkscape"
   width="216.36433"
   height="245.98894"
   id="svg2"
   version="1.1"
   inkscape:version="0.91pre2 r13555"
   viewBox="0 0 216.36433 245.98894"
   sodipodi:docname="sockhop.svg">
  <defs
     id="defs4">
    <inkscape:path-effect
       effect="spiro"
       id="path-effect4223"
       is_visible="true" />
  </defs>
  <sodipodi:namedview
     id="base"
     pagecolor="#ffffff"
     bordercolor="#666666"
     borderopacity="1.0"
     inkscape:pageopacity="0.0"
     inkscape:pageshadow="2"
     inkscape:zoom="2.3049817"
     inkscape:cx="108.18217"
     inkscape:cy="122.99447"
     inkscape:document-units="px"
     inkscape:current-layer="layer1"
     showgrid="false"
     inkscape:object-paths="true"
     inkscape:snap-global="false"
     fit-margin-top="0"
     fit-margin-left="0"
     fit-margin-right="0"
     fit-margin-bottom="0"
     inkscape:window-width="1345"
     inkscape:window-height="746"
     inkscape:window-x="21"
     inkscape:window-y="0"
     inkscape:window-maximized="1" />
  <metadata
     id="metadata7">
    <rdf:RDF>
      <cc:Work
         rdf:about="">
        <dc:format>image/svg+xml</dc:format>
        <dc:type
           rdf:resource="http://purl.org/dc/dcmitype/StillImage" />
        <dc:title></dc:title>
      </cc:Work>
    </rdf:RDF>
  </metadata>
  <g
     inkscape:label="Layer 1"
     inkscape:groupmode="layer"
     id="layer1"
     transform="translate(-300.41847,-405.7484)">
    <path
       style="color:#000000;font-style:normal;font-variant:normal;font-weight:normal;font-stretch:normal;font-size:medium;line-height:normal;font-family:sans-serif;text-indent:0;text-align:start;text-decoration:none;text-decoration-line:none;text-decoration-style:solid;text-decoration-color:#000000;letter-spacing:normal;word-spacing:normal;text-transform:none;direction:ltr;block-progression:tb;writing-mode:lr-tb;baseline-shift:baseline;text-anchor:start;clip-rule:nonzero;display:inline;overflow:visible;visibility:visible;opacity:1;isolation:auto;mix-blend-mode:normal;color-interpolation:sRGB;color-interpolation-filters:linearRGB;solid-color:#000000;solid-opacity:1;fill:#000000;fill-opacity:1;fill-rule:evenodd;stroke:none;stroke-width:10;stroke-linecap:butt;stroke-linejoin:round;stroke-miterlimit:4;stroke-dasharray:none;stroke-dashoffset:0;stroke-opacity:1;color-rendering:auto;image-rendering:auto;shape-rendering:auto;text-rendering:auto;enable-background:accumulate"
       d="M 26.015625 0.001953125 A 5.0004999 5.0004999 0 0 0 25.517578 0.0390625 C 25.683486 0.026831262 25.847681 0.007713964 26.015625 0.00390625 L 24.548828 0.2578125 A 5.0004999 5.0004999 0 0 1 25.501953 0.041015625 C 20.312856 0.43192048 16.171566 4.8789486 16.242188 10.134766 A 5.0004999 5.0004999 0 0 0 16.242188 10.136719 C 16.242188 10.136719 16.573364 34.194649 16.277344 61.792969 C 15.984694 89.082168 14.848947 120.51061 12.742188 133.00977 C 12.673988 133.22785 12.605238 133.45782 12.548828 133.60547 C 12.235798 134.42465 11.744303 135.66559 11.158203 137.17578 C 9.9850831 140.19851 8.4178275 144.35518 6.8359375 149.30078 C 3.6743175 159.18518 0.39465625 172.26556 0.00390625 186.51172 C -0.03869375 188.06428 0.28097001 189.60608 0.9375 191.01367 A 5.0004999 5.0004999 0 0 0 0.97460938 191.0918 C 0.97460938 191.0918 10.34552 209.91184 32.4375 211.60352 C 33.20806 211.66252 36.658001 212.24402 41.025391 213.19531 C 45.392781 214.14659 50.943923 215.46609 57.039062 217.02344 C 69.261112 220.14628 84.186851 224.22713 98.832031 228.28711 C 113.47736 232.34714 127.84689 236.38622 139.06836 239.45508 C 144.67936 240.9896 149.49757 242.27973 153.23242 243.22266 C 156.71403 244.10166 158.91547 244.79032 161.7793 245.00195 C 161.75199 244.99784 161.61009 244.97935 161.5918 244.97656 L 162.03125 245.02344 C 161.9448 245.018 161.86451 245.00825 161.7793 245.00195 C 162.88743 245.16897 171.23203 246.38384 181.29883 245.85938 C 186.65459 245.58036 192.53687 244.8357 198.2168 242.76367 C 203.9379 240.67662 209.99501 236.91266 213.34766 230.26367 C 219.38022 218.29984 215.5555 204.52544 208.99414 193.09961 C 202.40965 181.63348 192.12961 171.18702 179.18555 166.29492 C 167.87158 162.01891 152.60196 158.74598 138.98828 155.39453 C 132.17818 153.71801 125.8067 152.04133 120.93555 150.42578 C 118.57188 149.64185 116.49703 148.78637 114.97656 148.06445 C 113.45609 147.34253 112.2086 146.39147 112.76758 146.89844 C 111.4309 145.6861 109.04538 140.70639 108.16797 136.36133 C 107.26078 131.86883 107.23441 128.28327 107.23438 128.27734 L 107.23438 128.27344 C 107.23338 127.99634 107.21981 127.71938 107.19531 127.44336 C 107.25736 128.1479 107.20316 127.53049 107.20117 127.2168 C 107.19817 126.89929 107.19913 126.43969 107.20312 125.875 C 107.21112 124.74562 107.23608 123.1941 107.29688 121.45508 C 107.4207 117.91822 107.64026 113.21404 107.92578 107.78906 C 108.49685 96.938383 109.32887 83.18373 110.18555 69.6875 C 111.89892 42.69462 113.70508 16.724609 113.70508 16.724609 C 114.08169 11.305239 109.92185 6.48494 104.50586 6.0625 L 27.017578 0.03125 A 5.0004999 5.0004999 0 0 0 27.015625 0.03125 C 26.682975 0.0054500003 26.349195 -0.0055468749 26.015625 0.001953125 z M 36.275391 20.810547 L 93.091797 25.234375 C 92.871107 28.466675 92.529225 33.557662 92.078125 40.294922 L 36.359375 35.603516 C 36.340075 28.828786 36.310691 24.089357 36.275391 20.810547 z M 36.318359 55.671875 L 90.761719 60.253906 C 90.591239 62.822226 90.427632 65.254115 90.226562 68.421875 C 89.367433 81.956775 88.531235 95.753841 87.953125 106.73828 C 87.664085 112.23032 87.439584 117.01411 87.308594 120.75586 C 87.180434 124.41639 87.069874 126.7923 87.271484 129.13477 C 87.271624 129.13677 87.271344 129.13863 87.271484 129.14062 C 87.285784 130.14087 87.38744 134.50337 88.5625 140.32227 C 89.8559 146.72736 92.300431 155.33539 99.332031 161.71289 C 103.67665 165.65332 108.91974 167.51083 114.64062 169.4082 C 120.49248 171.34901 127.22347 173.09523 134.20703 174.81445 C 141.79501 176.68247 149.08879 178.52889 156.16992 180.37695 C 152.6901 184.72316 149.5697 189.55514 147.00781 194.77344 C 143.34962 202.22481 140.78171 210.50053 140.17188 219.00586 C 129.64177 216.10721 117.34117 212.66341 104.17578 209.01367 C 94.184961 206.24398 84.267986 203.54799 74.884766 201.04883 C 76.285376 178.53236 70.582172 161.68068 60.945312 150.17383 C 52.799773 140.4477 42.559292 134.92588 33.070312 131.45312 C 35.294782 114.38008 36.005241 87.198272 36.275391 62.007812 C 36.300091 59.704903 36.306459 57.745275 36.318359 55.671875 z M 27.541016 150.71094 C 34.244856 153.35749 40.727641 157.18196 45.613281 163.01562 C 51.387241 169.90999 55.590542 179.75921 55.164062 195.97266 C 46.348063 193.7715 38.970954 192.04545 33.964844 191.66211 C 25.301214 190.9987 21.680717 186.72294 20.216797 184.43555 C 20.837477 173.85802 23.299779 163.48229 25.886719 155.39453 C 26.473619 153.55968 26.986406 152.26328 27.541016 150.71094 z M 176.85352 187.55469 C 182.48353 191.09042 188.09292 196.86564 191.65039 203.06055 C 196.18978 210.96537 196.4605 219.33166 195.48828 221.25977 C 195.18584 221.85958 194.1918 222.94277 191.36328 223.97461 C 188.59363 224.98497 184.37521 225.67231 180.25977 225.88672 C 171.99312 226.3174 164.2072 225.16338 164.18555 225.16016 L 164.17188 225.1582 C 164.10588 225.1481 164.03889 225.14552 163.97266 225.13672 C 163.93516 225.13072 163.82311 225.09849 163.77344 225.08789 C 163.44123 225.01709 163.02082 224.93266 162.46875 224.81836 C 161.88418 224.69733 160.96106 224.47493 160.16992 224.29688 C 159.87823 218.00017 161.55654 210.52229 164.96094 203.58789 C 168.09916 197.19565 172.62135 191.43674 176.85352 187.55469 z M 162.96484 225.05469 C 163.16767 225.05269 163.23591 225.0595 163.28711 225.0625 A 5.0004999 5.0004999 0 0 0 162.83203 225.0625 C 162.86513 225.06188 162.9378 225.05469 162.96484 225.05469 z M 162.72656 225.06836 A 5.0004999 5.0004999 0 0 0 162.30078 225.11328 C 162.34778 225.10728 162.42732 225.08838 162.4668 225.08398 C 162.60619 225.06848 162.64658 225.07186 162.72656 225.06836 z M 162.27344 225.11719 A 5.0004999 5.0004999 0 0 0 161.00195 225.49805 C 161.2084 225.40895 161.42208 225.31634 161.42188 225.31641 C 161.42152 225.31654 161.77339 225.20975 161.9043 225.17969 C 162.07609 225.14029 162.16561 225.13219 162.27344 225.11719 z M 160.85547 225.56055 A 5.0004999 5.0004999 0 0 0 160.56641 225.71875 C 160.58681 225.70385 160.67971 225.63672 160.67969 225.63672 C 160.67962 225.63675 160.79185 225.58805 160.85547 225.56055 z M 159.51367 226.51758 L 159.51562 226.52148 A 5.0004999 5.0004999 0 0 0 159.5 226.53711 C 159.501 226.53511 159.51287 226.51878 159.51367 226.51758 z M 158.36523 228.30859 A 5.0004999 5.0004999 0 0 0 158.30273 228.47266 L 158.30664 228.40039 C 158.30664 228.4004 158.35993 228.31679 158.36523 228.30859 z "
       id="path4227"
       transform="translate(300.41847,405.7484)" />
  </g>
</svg>
